<svg xmlns="http://www.w3.org/2000/svg" viewBox="0 0 510.39 102.67"><defs><style>.cls-1{fill:#fff;fill-rule:evenodd;}</style></defs><g id="Camada_2" data-name="Camada 2"><g id="Camada_1-2" data-name="Camada 1"><path class="cls-1" d="M19,26.57l10.73,16-9.92,18L0,97.11,46.62,47.6c.56-.87,2.67-2.6,2.67-3.6,0-1.25-20.44-20-22.95-22.21A272.59,272.59,0,0,0,.84,2.21c.13.52,8.25,10.25,9.41,11.86,1.34,1.85,8.44,11.12,8.79,12.5m42.3,21c2.57,1.78,14.88,18.22,17.19,21.81,2.56,4,5.13,7.6,7.6,11.79,1.5,2.54,5.62,11.21,6.8,12.62l.29-.1L85.43,70.57C84.31,68.9,81.55,61.44,80.35,59,79.69,57.58,75,48.21,75,47.6c0,0,2.12-7.66,2.36-8.64s1.87-8.7,1.93-8.8l1-10.77C80,19.44,71,31.51,70.18,32.66c-3,4.12-8,8.87-10.45,12.73ZM5.66,102.67c2.28-.55,21.82-12.91,25.52-15.13C33.73,86,56.06,71.68,56.25,71.68c1.71,0,15.32,10.68,17.48,12.37,2.88,2.27,5.38,4.5,8.17,6.77C83.85,92.41,88.45,97.13,90,98c-.94-4.14-13-21-16-25-1.78-2.43-17.62-22.31-18.58-22.31-.61,0-22.23,23.67-24.69,26.23L18.31,89.73C16,92.1,6.83,100.86,5.66,102.67ZM54.11,39.3,76.33,15.5c-5.81,0-20.84,4.63-24.89,6.64C44.24,18.21,37.66,13.91,30,10,26.4,8.1,10.2.32,6.46,0,6.62.22,18,7.87,19.37,8.8a135.31,135.31,0,0,1,12.19,9.53c4,3.53,7.61,6.61,11.51,10.25C45.71,31,51.93,37.78,54.11,39.3Z"/><path class="cls-1" d="M126.93,42.08c-7.33,0-11,1-11,2.82V57.32q0,3.27,12.07,3.27h24.18c1.61,0,2.41.48,2.41,1.45s-.8,1.47-2.41,1.47H127.12q-17.69,0-17.68-6.11V44.9q0-5.73,17.35-5.74h25.39c1.61,0,2.41.49,2.41,1.45s-.8,1.47-2.41,1.47Z"/><path class="cls-1" d="M216,57.13q0,6.39-19.38,6.38H184.36Q165,63.51,165,57.19V45.57q0-6.41,19.38-6.41h12.25q19.38,0,19.38,6.41ZM209.46,45.7q0-3.62-10.66-3.62H183c-7.55,0-11.34,1.21-11.34,3.62V57.08c0,2.34,3.79,3.51,11.34,3.51h15.41c7.39,0,11.1-1.17,11.1-3.51Z"/><path class="cls-1" d="M300.21,62.15c0,1-1.13,1.52-3.39,1.52-2,0-3.05-.51-3.05-1.52V44.41l-24.62,18a7.19,7.19,0,0,1-4.4,1.26,9.48,9.48,0,0,1-2.67-.32,5.94,5.94,0,0,1-1.94-.94l-25-17.94V62.15c0,1-1,1.52-3.15,1.52s-3.29-.51-3.29-1.52V41.09c0-1.37,1.21-2.06,3.63-2.06a7.23,7.23,0,0,1,4.36,1.26L264.8,60.11l27.56-20a4.29,4.29,0,0,1,1.75-.79,9.93,9.93,0,0,1,2.32-.26c2.52,0,3.78.72,3.78,2.14Z"/><path class="cls-1" d="M365,56.81q0,6.69-21.6,6.7h-9.89q-20.55,0-20.55-6.7V40.53c0-1,1.09-1.5,3.28-1.5s3.36.5,3.36,1.5v16c0,2.71,4.32,4.07,12.92,4.07h12q14,0,14-4.05v-16c0-1,1.13-1.5,3.35-1.5s3.15.5,3.15,1.5Z"/><path class="cls-1" d="M430.07,61.31a1.9,1.9,0,0,1-1.18,1.78,6.24,6.24,0,0,1-2.74.58,8,8,0,0,1-1.62-.16A5.7,5.7,0,0,1,423,63l-38.8-19.2V62.15c0,1-1.07,1.52-3.2,1.52s-3.25-.51-3.25-1.52V41.28A1.73,1.73,0,0,1,379,39.65a6.94,6.94,0,0,1,2.79-.54,9.79,9.79,0,0,1,1.77.16,5.79,5.79,0,0,1,1.57.51l38.52,18.88V40.53q0-1.5,3.3-1.5c2.1,0,3.14.5,3.14,1.5Z"/><path class="cls-1" d="M449.42,62.15c0,1-1.11,1.47-3.34,1.47s-3.3-.49-3.3-1.47V40.5c0-1,1.14-1.5,3.43-1.5,2.14,0,3.2.5,3.2,1.5Z"/><path class="cls-1" d="M484.8,53.47l-20.21,9.69a4.64,4.64,0,0,1-2,.43,5.73,5.73,0,0,1-1.24-.12,4.4,4.4,0,0,1-1.06-.34,2.12,2.12,0,0,1-.72-.49.71.71,0,0,1-.08-1,1.62,1.62,0,0,1,.68-.47l20.35-9.81-20-9.61a2.4,2.4,0,0,1-.87-.59.9.9,0,0,1-.25-.59c0-.41.31-.76.92-1.06a5.11,5.11,0,0,1,2.18-.44,4.85,4.85,0,0,1,2.13.46l20.16,9.74,20.06-9.72A5.07,5.07,0,0,1,507,39a4.92,4.92,0,0,1,2.2.46c.63.3.94.66.94,1.07s-.38.8-1.15,1.18l-19.92,9.58,20.3,9.78c.65.31,1,.63,1,1a.8.8,0,0,1-.29.58,2.72,2.72,0,0,1-.78.48,4.75,4.75,0,0,1-1.1.32,6.26,6.26,0,0,1-1.23.13,5.61,5.61,0,0,1-1.07-.1,3.6,3.6,0,0,1-1-.31Z"/></g></g></svg>